<?xml version="1.0" encoding="utf-8"?>
<!-- Generator: Adobe Illustrator 18.0.0, SVG Export Plug-In . SVG Version: 6.00 Build 0)  -->
<!DOCTYPE svg PUBLIC "-//W3C//DTD SVG 1.1//EN" "http://www.w3.org/Graphics/SVG/1.1/DTD/svg11.dtd">
<svg version="1.1" id="Livello_1" xmlns="http://www.w3.org/2000/svg" xmlns:xlink="http://www.w3.org/1999/xlink" x="0px" y="0px"
	 viewBox="0 0 860 758" enable-background="new 0 0 860 758" xml:space="preserve">
<path fill="#FFFFFF" d="M617.5,472.5c-42.8,39.8-92.9,61.3-151,61c-57.9-0.3-107.9-21.8-150.3-61.5c-4.3,4.2-8.5,8.3-12.7,12.5
	c-16.8,16.7-33.6,33.5-50.3,50.2c-0.8,0.8-1.7,1.6-2.6,2.1c-0.4,0.2-1.2-0.1-1.6-0.4c-0.3-0.2-0.3-1-0.1-1.4c0.4-0.7,1.1-1.4,1.7-2
	c19.8-19.7,39.7-39.5,59.5-59.2c1.2-1.2,2.7-2.3,4.4-3.7c-41.6-42.1-63.5-92.4-64.4-150.9c-0.9-58.3,19.1-109.3,59.1-152.6
	c-18.8-18.8-37.4-37.4-56.2-56.2c0.6-0.7,1.1-1.2,1.9-2.1c18.9,18.8,37.6,37.4,56.4,56.1c43.2-43,94.6-66.2,155.5-66.3
	c60.9-0.1,112.4,23,155.9,65.8c18.8-18.6,37.7-37.3,56.7-56.1c0.8,0.9,1.3,1.5,2,2.3c-18.7,18.9-37.3,37.7-56.1,56.7
	c39.6,43,59.8,94.1,59,152.7c-0.8,58.6-23,108.7-64.4,150.6c1,1,1.9,2,2.8,3c19.2,19.1,38.4,38.2,57.6,57.3c1.2,1.2,2.4,2.2,3.4,3.5
	c0.5,0.7,0.7,1.6,1,2.4c-2.2,1.1-3-0.4-3.9-1.2c-6.6-6.5-13.2-13.1-19.9-19.7c-13.8-13.7-27.5-27.4-41.3-41.1
	C619.1,473.9,618.4,473.3,617.5,472.5z M444.1,173.3c1.5,0.1,3,0.3,4.4,0.4c1,0,1.9-0.2,2.9-0.3c0-0.2-0.1-0.4-0.1-0.6
	c-1.5-0.4-2.9-0.8-4.7-1.3c0.7-0.4,1-0.5,1.1-0.6c0.4-1.7-0.9-2.2-2.1-2.3c-1.2-0.1-2.2,0.6-2.2,2c0,0.9,0.2,1.7,0.4,2.6
	c-4.2,2.6-4.5,3.6-1.5,7.1c0.4-1,1.1-2,0.9-2.6C442.6,175.8,443.5,174.6,444.1,173.3z M535,495.2c-1.7,1.1-3.3,2.2-5.2,3.5
	c0.8,0.9,1.5,1.6,2.3,2.5c4.2-1.9,8.1-3.8,12.1-5.5c2-0.9,2.1-2.1,1.2-4.1c-1.8,0.8-3.5,1.5-5.2,2.1c-1.7,0.6-3.5,1-5.2,1.5
	c2.9-1.4,5.8-2.9,8.7-4.3c1.9-0.9,2.3-2.1,1.1-4c-6,2.6-11.9,5.1-17.8,7.6c0.9,2.5,2.2,2.9,4.2,1.9
	C532.3,495.9,533.7,495.6,535,495.2z M352.4,466.5c3.8,2.7,7.6,5.4,11.9,8.4c0.8-0.8,1.5-1.4,2.3-2.1c-4.5-3.6-8.4-6.7-12.2-9.9
	c-0.9-0.7-1.4-1.9-2-2.9c5,4,9.9,8,15.1,12.1c1-0.9,1.7-1.6,2.5-2.4c-3.5-2.7-6.7-5.2-9.7-7.7c-1-0.8-1.7-2-2.6-3
	c0.9,0.6,1.9,1.1,2.7,1.8c3.5,2.7,7,5.5,10.6,8.4c1.1-0.8,2-1.4,2.9-2c-2.3-2.1-4.4-4-6.5-5.8c1.1,0.6,2.2,1.1,3.2,1.8
	c15.8,10.9,32.4,20.1,51.1,25.3c11.3,3.1,22.6,6.1,34.4,6.4c5.5,0.1,11.1-0.2,16.6,0c16.9,0.7,33-3.7,48.7-9.2
	c19.8-6.8,37.5-17.7,53.3-31.5c0.9-0.8,2-1.3,3.1-2c-0.8,0.9-1.5,2-2.4,2.7c-4.8,3.9-9.6,7.7-14.4,11.5c-0.2,0.2-0.3,0.6-0.6,1
	c1.1,0.6,2,1.1,3.2,1.8c6.1-5,12-9.9,17.9-14.8c-0.5-1.4-0.9-2.2-1.2-3.1c-1,0.4-1.8,0.8-2.6,1.1c0.6-0.8,1.1-1.6,1.8-2.3
	c2.5-2.5,5-4.9,7.7-7.5c-1-1-1.7-1.6-2.3-2.2c-1.1,0.6-2,1-2.9,1.5c0.5-0.9,1.1-1.9,1.6-2.9c-0.8-0.7-1.4-1.3-2.3-2.1
	c-1.3,1.3-2.4,2.5-3.6,3.5c-1.8,1.5-3.6,3-5.4,4.4c0.7-0.9,1.2-1.8,2-2.5c1.9-2,3.8-3.9,5.7-5.9c0.1-0.1,0.1-0.5,0.1-0.9
	c-0.6-0.6-1.3-1.2-1.8-1.7c-4.9,4.5-9.7,8.9-14.5,13.3c-0.8,0.7-1.9,1.1-2.8,1.6c0.6-0.7,1.2-1.5,1.9-2.2c2.5-2.3,5.1-4.5,7.5-6.8
	c2.3-2.2,4.5-4.5,7-6.9c-1.1-1-1.8-1.6-2.6-2.4c-1,0.8-1.9,1.5-2.7,2.2c0.6-1.1,1.1-2.2,1.7-3.3c-0.5-0.6-0.9-1-1.4-1.5
	c-0.3-0.2-0.7-0.3-1.1-0.5c-0.5,0.4-1,0.8-1.4,1.3c-7.3,8-15.6,14.9-24.5,21c-3.7,2.5-7.7,4.5-11.6,6.7c1.5-1.1,2.8-2.3,4.4-3.3
	c11.6-7.1,22-15.5,31.2-25.4c0.4-0.4,0.7-1,1.2-1.7c-0.9-0.7-1.6-1.2-2.3-1.7c-58.2,62.4-148.5,59.1-203-0.5
	c-0.7,0.6-1.5,1.3-2.1,1.8c1.3,2,2.5,3.9,3.7,5.7c-1.5-1.4-3.1-2.9-4.8-4.5c-0.8,0.9-1.5,1.7-2.2,2.5c14.6,15.6,31.2,27.8,50.5,36.3
	c24,10.6,49,14.1,74.9,10.9c17.8-2.2,34.5-8,50.2-16.6c2-1.1,4-2,6-2.9c-0.7,0.6-1.3,1.4-2.1,1.9c-31.1,17.8-64.3,24-99.6,17.1
	c-21.7-4.2-41.3-13.2-59-26.4c-7.4-5.5-14.3-11.6-20.6-18.3c-0.4-0.4-0.9-0.7-1.6-1.2c-0.7,0.9-1.3,1.6-2.3,2.8
	c1.5,1.3,2.9,2.3,4.1,3.6c1.7,1.8,3.2,3.7,4.9,5.5c-3.2-2.8-6.4-5.5-10.1-8.8c-0.5,0.7-1,1.6-1.7,2.5c0.7,0.7,1.2,1.4,1.8,2
	c10.4,10.5,21.8,19.7,34.5,27.3c1.2,0.7,2.3,1.7,3.5,2.6c-1.5-0.6-3-1.1-4.4-1.9c-12.8-7.7-24.4-17-34.8-27.6
	c-0.5-0.5-1.1-1-1.7-1.5c-0.6,0.5-1,0.7-1.3,1.1c-0.4,0.4-0.6,1-1,1.5c8.1,8.1,16.4,15.5,25.6,22c26,18.3,54.7,28.5,86.6,29.7
	c16.7,0.6,33.2-1.5,49.2-6.4c22.1-6.7,41.9-17.7,59.4-32.7c3.7-3.2,7.3-6.5,11-9.7c-0.7,1.1-1.3,2.4-2.2,3.3c-3.2,3-6.5,6-9.9,8.8
	c-34.7,28.5-74.3,41.5-119.2,37c-19.4-1.9-37.6-7.7-54.9-16.6c-16.9-8.6-31.8-19.9-45-33.4c-0.4-0.4-0.9-0.8-1.6-1.3
	c-0.7,0.8-1.4,1.5-2.1,2.3c0.7,0.8,1.3,1.5,1.9,2.1c5.4,4.9,10.8,9.8,16.2,14.7c0.9,0.8,1.7,1.8,2.5,2.7c-1.1-0.7-2.4-1.3-3.4-2.1
	c-3.3-2.7-6.5-5.5-9.9-8.4c-0.5,1.2-0.9,2.2-1.2,3.1c1.7,1.8,3.2,3.5,4.7,5.1c-1.7-1.1-3.5-2.1-5.3-3.3c-1.2,1.4-1.4,2.8,0,4.3
	c-0.6,0-1.2,0.1-1.9,0.1c-0.3,1-0.7,2-1,2.9c1.1,1.3,2,2.4,2.9,3.5c-1.2-0.6-2.3-1.1-3.7-1.8c-0.3,1.1-0.7,2.1-1,3.3
	c4.2,3.3,8.2,6.5,12.3,9.7c1-0.9,1.7-1.6,2.6-2.4c-2.9-2.3-5.6-4.3-8.1-6.5C353.6,468.3,353.1,467.3,352.4,466.5z M462.5,159.1
	c1.1,0.2,2.3,0.2,3.3,0.6c2.3,0.9,3-0.5,3.8-2.2c-2.5-0.1-4.8,0-7-0.4c-3.1-0.7-5.4,0.4-7.6,2.2c-1.3,1-2.5,2.1-3.8,3.2
	c1,1,1.2,2.1-0.3,3.1c-0.8,0.5-1.4,1.3-2.2,2l0,0c0,0.5,0,0.9-0.1,1.2c4.1,0.8,7.1-0.1,8.1-4.5c0.1-0.4,0.5-0.8,0.7-1.2
	c1.5,0.5,3.1,1,4.6,1.5c2.6,0.8,3.9-0.1,4.5-3C465.2,160.8,463.8,159.9,462.5,159.1z M578.5,463.7c1-1.1,1.9-2.3,2.9-3.3
	c1.9-1.9,1.9-1.9,0.5-4.8c-5.8,4.7-11.5,9.5-17.7,14.6c1.6,0.7,2.7,1.2,3.8,1.7c0.9,1,1.7,1.9,2.9,3.2c5-4.1,9.7-7.9,14.5-11.8
	c-0.6-1.4-1-2.3-1.4-3.2C582,461.4,580.2,462.6,578.5,463.7z M400.1,410.6c0.7,0.4,1.5,0.8,2.2,1.3c3.9,2.9,7.8,5.8,12,8.9
	c0.9-1.2,1.6-2.1,2.4-3.2c-8.7-5.1-16-11.3-22.7-18.5c-0.8,1.1-1.3,1.9-1.9,2.8c1.3,1.4,2.5,2.7,3.7,3.9c1.5,1.6,3,3.3,4.5,4.9
	c-0.7-0.4-1.6-0.6-2.2-1.2c-2-1.9-3.9-3.9-5.8-5.9c-0.2-0.2-0.6-0.3-1-0.5c-0.4,0.4-0.7,0.8-1,1.2c-0.3,0.5-0.6,1-0.8,1.6
	c6.5,7.1,13.7,13.2,21.9,18.2c0.8-0.9,1.5-1.7,2.2-2.6c-3.8-2.8-7.3-5.3-10.8-8C401.6,412.7,400.9,411.6,400.1,410.6z M521.2,420.5
	c0.5,1.1,1,2.3,1.7,3.7c8.7-5.3,16-11.2,22.4-18.7c-0.7-0.9-1.3-1.7-2.1-2.7c-3.2,3-6,6.1-9.2,8.7c-2.6,2.2-5.6,4-8.5,6
	c0.9-0.8,1.7-1.7,2.6-2.5c4.3-3.9,8.6-7.7,12.8-11.7c1.8-1.7,1.7-1.9-0.7-4.1c-6.7,7-14,13.3-22.8,18.6
	C519,419,520.1,419.8,521.2,420.5z M524.2,381.2c0-1.7-0.8-2.8-2.5-3.4c-6.4,7.1-13.8,13-22.5,17.8c0.9,1.1,1.7,1.9,2.4,2.7
	c5.5-3,10.4-6.3,14.9-10.4c2.6-2.3,5.2-4.6,7.8-6.9c-1.4,1.7-2.7,3.6-4.3,5.2c-4.9,5-10.6,8.8-16.6,12.3c-0.3,0.2-0.4,0.5-0.8,1
	c0.8,0.8,1.5,1.6,2.5,2.8c4.6-3.4,9-6.6,13.5-9.9c1.1-0.8,2.2-1.6,3.3-2.4c-0.8,1-1.4,2.3-2.4,3c-4.2,3.1-8.5,6.1-12.8,9.2
	c-0.3,0.2-0.5,0.5-0.8,1c0.8,0.8,1.5,1.6,2,2.2c2.1-0.8,3.9-1.6,5.6-2.3c-1.5,1.2-3,2.4-4.6,3.7c0.8,0.9,1.4,1.6,2.3,2.6
	c2.6-1.7,5-3.4,7.5-5c1.8-1.2,3.7-2.4,5.5-3.6c-1.1,1.1-2.1,2.5-3.3,3.4c-2.6,1.9-5.4,3.7-8.1,5.5c-0.3,0.2-0.4,0.5-0.7,0.9
	c0.7,0.8,1.3,1.5,2.2,2.5c3.1-2.2,6.1-4.2,9-6.3c1.8-1.3,3.6-2.6,5.5-3.9c-0.6,0.8-1,1.7-1.7,2.2c-3.9,3-7.8,5.9-11.9,9
	c0.6,0.8,1.3,1.6,2,2.6c8.7-5.3,16.3-11.5,23.1-19.5c-1.2-0.9-2.3-1.7-3.3-2.5c0.2-1.6-0.4-2.8-2.2-3.8c-0.5,0.6-0.9,1.4-1.6,2
	c-3,2.7-6,5.4-9.1,8c1-1.2,2.1-2.4,3.1-3.5c2.4-2.5,4.8-5,7.3-7.6c-1.2-0.9-1.9-1.5-2.7-2.1c-3,3-5.7,6-8.8,8.6
	c-3,2.6-6.4,4.7-9.6,7c1.1-1.1,2.2-2.3,3.4-3.3c5.1-3.9,9.9-8.1,14.5-13.7c-0.8-0.7-1.6-1.4-2.6-2.3c-1.5,1.6-2.5,2.9-3.7,4
	c-1,0.9-2.1,1.5-3.2,2.3c1.9-2.3,3.8-4.5,5.6-6.8C526.8,381.9,525.9,381,524.2,381.2z M408.5,405.5c-0.7-0.4-1.6-0.7-2.2-1.2
	c-3.2-3-6.4-6-9.7-9.2c-0.6,1-1.2,1.9-1.8,2.8c6.5,7.9,14.2,13.8,22.8,19c0.7-1,1.3-1.9,2-2.8c-2-1.4-3.9-2.5-5.5-3.8
	c-1.9-1.5-3.8-3.2-5.6-4.8c1.1,0.6,2.2,1.1,3.2,1.8c2.9,2,5.7,4,8.7,6.1c1-1.1,1.7-1.9,2.3-2.6c-4.9-3.8-9.8-7.3-14.5-11.1
	c-2.7-2.3-5.8-4.4-7.2-7.9c0.9,0.7,1.8,1.3,2.6,2.1c2.9,2.6,5.6,5.4,8.6,7.8c3.6,2.9,7.2,5.8,11.6,7.8c0.7-0.9,1.3-1.6,2-2.6
	c-1.8-1.1-3.4-2-4.9-3.2c-3-2.3-6.7-4-8.7-7.4c1,0.6,2.1,1.3,3.1,2c3.7,2.6,7.4,5.2,11.5,8.1c1-1.5,1.7-2.6,2.3-3.7
	c1-1.2,2.1-2.3,3.1-3.5c1-1,2-2,3.3-3.3c-9.2-4.7-16.5-11-23.1-18.3c-0.9,0.9-1.6,1.5-2.5,2.4c1.2,1.4,2.1,2.7,3.2,3.8
	c5,5,10.5,9.4,16.5,13.2c1,0.6,1.8,1.6,2.7,2.4c-3.8-2.4-7.8-4.5-11.4-7.3c-4.2-3.3-8.1-7.2-12.3-11c-0.6,0.7-1.3,1.4-2.2,2.3
	c4.7,5.4,9.6,10,15.2,13.9c2.6,1.8,5,3.7,7.5,5.6c-0.9-0.4-1.9-0.6-2.7-1.1c-3-2-6.1-4-8.9-6.3c-4.1-3.4-8-7.2-12.1-10.9
	c-0.6,0.5-1.3,1.2-2.3,2.1c2.1,2.2,4.1,4.3,6,6.4c1.1,1.2,2.1,2.4,3.2,3.6c-2.4-2-4.8-4-7.2-6.1c-1-0.8-1.9-1.8-2.7-2.6
	c-2,1.2-2.2,2.5-1.4,4.2c-1.9-0.6-3,0.2-3.3,2.7c2.8,2.8,6,5.8,9,8.8C407.4,404,407.9,404.8,408.5,405.5z M545.3,425.9
	c0.5-0.7,0.9-1.4,1.5-2c2.1-2.1,4.3-4.2,6.5-6.3c0.1-0.1,0.1-0.4,0.2-0.7c-0.3-0.4-0.6-0.8-0.9-1.2c-0.3-0.3-0.6-0.7-0.9-0.9
	c-0.5,0.2-0.7,0.3-0.9,0.5c-6.3,6.2-12.9,12-20.4,16.8c-2,1.3-1.5,2.8-0.6,4.8c2-1.4,3.8-2.7,5.7-3.9c1.8-1.1,3.6-2.2,5.4-3.3
	c-3,2.3-5.9,4.9-9.1,7c-2.3,1.5-3.4,3.3-3.6,6.5c1.4-0.8,2.4-1.4,3.4-2c3.6-2.2,7.1-4.5,10.7-6.8c-1.1,1.1-2.2,2.3-3.5,3.3
	c-5.1,4-11.4,6.5-16.1,11.1c-0.9,0.9-2.4,1.4-3.6,2c-13.4,6.4-27.5,9.5-42.2,10.8c-15.1,1.4-29.9-0.6-44.5-4.6
	c-10.8-3-21.1-7.2-29.4-15.1c1,0.2,2,0.4,3,0.6c0.1-2.9-1.3-4.4-3.3-5.8c-4.8-3.2-9.4-6.7-14-10.2c-0.9-0.7-1.6-1.8-2.4-2.7
	c1.1,0.7,2.3,1.4,3.3,2.2c4.2,3.1,8.5,6.3,12.7,9.3c0.8,0.5,1.7,0.9,2.6,1.3c0.8-2.3,0.2-3.6-1.6-5c-5.6-4.2-11.1-8.6-16.5-13
	c-1.3-1.1-2.5-2.4-4-3.7c-0.8,0.9-1.4,1.6-2.1,2.5c1,1.1,2,2.1,2.9,3.1c1,1.1,1.9,2.2,2.8,3.3c-2.2-1.8-4.5-3.5-6.8-5.4
	c-0.7,0.5-1.5,1-2.4,1.7c0.8,1.3,1.6,2.4,2.3,3.5c-0.9-0.7-1.8-1.3-2.7-2.1c-1.5-1.4-3-1.3-5-0.2c1.4,1.5,2.6,2.7,3.8,4
	c1.6,1.7,3.1,3.5,4.7,5.2c-1.4-1.1-2.8-2-4.1-3.2c-1.9-1.8-3.7-3.8-5.5-5.7c-0.8-0.8-1.6-1.2-2.5-0.1c21,25.7,62,48.1,107.6,45
	c24.9-1.7,47.4-10.1,67.7-24.4c8.3-5.9,15.9-12.5,22.8-20.3c-2.2-1.4-2.9,0-3.9,0.9c-4.6,4.3-9.2,8.6-13.8,12.8
	c-0.5,0.5-1.3,0.6-1.9,1c0.8-0.9,1.6-1.8,2.5-2.6c3.8-3.5,7.6-7,11.3-10.5c0.6-0.6,1-1.5,1.6-2.3c-2.4-1-3.9-0.4-5.4,1.1
	c-3.8,3.6-7.8,7.1-11.8,10.5c-0.8,0.7-1.9,1.1-2.8,1.6c0.6-0.6,1.1-1.3,1.7-1.9c4.5-4,9.1-8,13.9-12.2c-1.4-0.9-2.2-1.5-3.2-2.2
	c-1.7,1.6-3.2,3.1-4.8,4.5C548.3,423.8,546.7,424.8,545.3,425.9z M427.4,378.3c-1.1-0.8-2.3-1.4-3.3-2.4c-1.5-1.5-2.9-3.1-4.4-4.7
	c-0.2-0.3-0.6-0.3-1.1-0.6c-0.7,0.7-1.3,1.4-2,2.2c0.4,0.6,0.6,1,1,1.4c7.4,8,15.6,14.6,26.5,17.9c10.7,3.2,21.3,5.3,32.3,3.4
	c9.8-1.7,19.5-3.8,27.8-9.9c0.6-0.4,1.2-0.9,1.9-1.3c4.2-3.2,8.1-6.8,11.5-11.1c-1-0.8-1.8-1.5-2.2-1.8c-2.5,2.3-4.7,4.4-7,6.4
	c-19.6,17.5-47.9,20.7-71,7.9c-2.6-1.4-4.7-3.5-7.1-5.3c1.1,0.6,2.2,1.1,3.2,1.7c21,14.2,49.4,13.6,69.7-1.6
	c4.1-3.1,7.9-6.5,11-10.8c-0.9-0.7-1.5-1.2-2.1-1.7c-23.6,28.3-66.6,28.2-90.1-0.3c-0.8,0.5-1.6,1-2.4,1.6c1.9,2.2,3.4,3.7,4.8,5.3
	C425.4,375.8,426.4,377.1,427.4,378.3z M598.3,162.7c-2.1,0.9-4.1,1.9-6.2,2.8c-0.1-0.2-0.2-0.3-0.3-0.5c2.2-1.6,4.3-3.1,6.5-4.7
	c-0.2-0.3-0.4-0.7-0.7-1c-4.2,2-9.1,2.7-11.9,7.3c-0.8,1.3-1.6,2.7-2.8,3.4c-4.8,3-9.9,5.3-15.6,6.3c-9.9,1.7-19.2,5.2-26.9,12
	c-1.2,1-2.8,1.9-4.3,2.2c-9,1.5-17.1,4.9-24.5,10.3c-0.2,0.2-0.7,0.1-1.1,0.1c0.6-0.9,1.2-1.7,1.7-2.6c-3.5-1.2-6.9-1-9.9,0
	c-4.6,1.5-9,3.8-13.4,5.7c-0.1,0.1-0.1,0.4-0.3,1.1c1.6,0.5,3.2,1.4,4.8,1.3c7.7-0.4,15.4-0.4,22.9,1.8c0.8,0.2,1.8-0.1,2.7-0.1l0,0
	c3,3.1,4.1,3.4,7.8,1.5c3.9-2,7.7-4.3,11.7-6.1c2.6-1.2,5.4-1.8,8.2-2.6c0.8-0.3,1.8-0.1,2.6-0.5c6.3-2.9,13-4.8,18.8-8.8
	c5.1-3.5,10.3-6.8,15.4-10.3c2-1.3,4.1-2.3,6.6-2.5c1.7-0.1,3.6-0.7,4.9-1.7c3.2-2.3,6.7-4,10.2-5.6c0.9-0.4,2.3-0.7,1.9-2.3
	c-3.7,0-6.2,1.1-8.2,3.9c0.3-2.5-0.4-4.2-2.9-6c-0.6,5.3-3.7,7.9-7.9,9.5c-0.4-1.4-1.9-2.7-0.4-4.8c1.6,1.6,3.7,2.2,5.2,0.5
	c1.2-1.4,1.5-3.6,2.3-5.7c0.7-0.2,1.7-0.5,2.8-0.8C598.1,164.8,598.2,163.7,598.3,162.7c2.8-1.3,5.4-3,8.4-5.1
	C601.9,157.1,600.7,157.9,598.3,162.7z M460.1,190.9L460.1,190.9c0.1,0.5,0.2,1,0.3,1.4c1.1,4.3,1.6,4.7,6.1,4.8
	c0.7,0,1.5,0.4,2.2,0.4c1.1-0.1,2.4,0,3.2-0.6c2.6-1.7,4.5-4.1,4.7-7.3c0.1-1.6,0.4-2.8,1.5-4c2.2-2.6,1.3-5.7,1.6-8.7
	c0.2-1.9-0.8-3-1.9-4.3c-1.3-1.4-2-3-1.7-5.1c0.6-3.8,0.2-4.2-3.5-4.3c2.9-1.3,4.3-0.8,4.6,2c0.1,1.1-0.1,2.3-0.1,3.4
	c0.1,1.6,0.6,2.9,2.5,3.1c3.2,0.4,3.2,0.4,3.5,3.8c0.3,2.9,1.5,4,4.4,4.6c0.5,0.1,1,0.7,1.4,1l0.1-0.1c-1.3,0.1-2.7,0.1-4,0.2
	c0,0.2,0,0.5,0,0.7c1.2,0.2,2.3,0.5,3.8,0.8c0.6,2,1.1,4.1,1.7,6.2c-0.8,0.2-1.5,0.3-2,0.4c-0.1,1.7,2.1,2.6,1,4.3
	c-1.6-0.7-1.6-3-3.3-3.5c0.5,2.6,1,4.9,1.5,7.4c3.4-2.1,4.3-5.5,4-9.8c1.7,1.3,1.9,2.5,1.6,3.7c-0.5,1.8-1.1,3.7-2.2,5.1
	c-1.8,2.4-4.1,4.5-6.4,7c0.9,0.2,1.6,0.6,2.1,0.4c2.9-1.2,6-2.1,8.6-3.7c5.3-3.5,11-3.9,17-3.1c1.1,0.2,2.6,0,3.5-0.5
	c5.8-3.6,12-5.7,18.7-6.8c1.9-0.3,3.5-1.1,5-2.3c7.6-6.7,16.7-10.3,26.5-11.9c5.8-0.9,10.7-3.6,15.7-6.3c0.7-0.4,1.5-1.1,1.9-1.8
	c3.1-6,8.8-7.8,14.7-9.4c0.6-0.2,1.3-0.4,1.9-0.6c0-0.1-0.1-0.3-0.1-0.4c-40.5,0-80.9,0-121.4,0c3.3,2.7,7.2,4.5,7.4,9
	c2,0.6,4.3,0.6,5,1.7c0.9,1.3,0.4,3.5,0.5,5.5c1.7,0.2,2.7,1.3,2.7,3.3c0,1.4-0.4,1.9-2.1,2.8c0-0.4,0-0.8,0.1-1.1
	c0.8-3.1,0.8-3-2.4-3.6c-2.5-0.4-3.4-1.6-4-5c1,0,1.9,0.1,3.6,0.2c-1.2,0.7-1.8,1-2.6,1.4c0.9,0.6,1.7,1.2,2.4,1.6
	c0.4-0.3,0.6-0.4,0.7-0.6c0.9-1.5,1.4-3.3-0.2-4.4c-1.8-1.2-2.9,0.5-3.7,1.8c-0.4-1.1-0.9-2.2-1.3-3.3c-0.5-1.4-0.7-3.2-1.7-4
	c-2.1-1.8-4.4-3.4-6.9-4.5c-1.4-0.6-4.1-0.7-4.9,0.2c-1.5,1.7-4.3,3-3.5,6.5c2.3,0.2,4.7,0.5,7.2,0.8c0,0.3,0,0.6-0.1,0.8
	c-5.4,0-10.8,0-16.2,0c-0.1,0.1-0.2,0.2-0.2,0.3c-0.4,2.7,0.3,5.8-3,7.3c-0.3,0.2-0.5,0.8-0.7,1.3c-0.7,3.3-1.4,6.6,0.8,9.8
	c0.6,0.9,0.9,2.1,1.3,3.1c0.1,0.2,0.2,0.3,0.5,0.7c0.4-1.1,0.6-1.9,0.9-2.8c0.7,0.9,0.7,1.6,0.7,2.4c-0.1,1.1-0.3,2.2-0.3,3.3
	c0,0.2,0.7,0.4,1.1,0.6C459.9,191.5,460,191.2,460.1,190.9z M476.7,200.8L476.7,200.8c0-1.1-0.1-2.3-0.2-4.2
	c-3.6,4.6-7.8,5.9-13.1,4.3c1.2,3.8,2.3,7.1,3.3,10.4c-0.3,0.1-0.5,0.2-0.8,0.3c-1-2.8-2.1-5.6-3-8.4c-1-3.1-2.9-5.3-6.5-6.9
	c0.6,3.8,1.1,7.1,1.7,10.4c-0.2,0.1-0.4,0.1-0.6,0.2c-0.5-1.5-0.9-2.9-1.4-4.7c-0.9,1.2-1.7,2.2-2.9,3.7c0.3-1.5,0.4-2.1,0.6-3
	c-3.2,1.6-6.1,3-9.8,4.8c2.2,0.4,3.5,0.8,4.8,1c3.6,0.4,7.3,0.6,10.9,0.9c1.3,0.1,2.8,0,3.1,1.6c-1.9-0.2-3.7-0.2-5.5-0.5
	c-4.1-0.5-8.5-0.4-12.2-1.9c-5.6-2.2-10.8-0.9-16.1-0.7c-0.2,3.2-0.4,6.1-0.5,9c0,0.6-0.2,1.4,0.1,1.8c2.1,2.8,4,5.9,7.9,8
	c-1.5-3.3-4-5.2-4.5-9.1c0.9,1.4,1.4,2.1,1.9,2.9c2.9,4.1,5.7,8.3,8.6,12.4c2,2.9,4.6,4.7,8.2,4.5c4.4-0.3,8.8-0.7,13.1-1.2
	c1-0.1,1.9-0.5,2.8-0.8c0.1,0.3,0.1,0.6,0.2,0.9c-4.5,2.2-9.4,3.2-14.3,3.8c-4.6,0.6-8.5-1.4-12.3-4.1c0.5,1.5,1,3,1.4,4.5
	c-0.2,0.1-0.5,0.3-0.7,0.4c-1.2-0.7-2.4-1.4-3.6-2.1c1.7,9.3,3.9,20.5,7.2,26.5c-0.7,3.2-1.3,6.2-2.1,9.3c-1.4,5.5-0.3,8,4.9,10.6
	c0.1,0.1,0.1,0.4,0.1,1c-1.8-0.8-3.5-1.5-5.3-2.2c-0.5,1.7-1,3.3-1.5,4.8c-0.7,2-0.3,3.4,1.3,5c7.8,7.5,15.4,15.2,23.1,22.8
	c0.6,0.6,1.3,1,2.2,1.7c9.1-9.4,18-18.6,27.3-28.1c-0.5-1.8-1.1-4.2-1.7-6.6c-1.4,0.5-2.4,0.9-3.3,1.2c4.7-2.7,4.7-6.6,3.3-11
	c-0.3-0.8-0.5-1.7-0.6-2.6c-0.6-3.2-1.9-6.5,0.5-9.6c0.4-0.5,0.4-1.2,0.6-1.8c0.9-4.2,1.9-8.3,2.8-12.5c1.6-7.3,3.2-14.5,8.6-20.2
	c0.8-0.8,0.7-2.4,1-3.6c-4.2,2.5-7.5,5.4-9.5,9.7c-2,4.5-5.6,6.5-10.6,6.5c-4.4,0-8.4-1.3-12.5-2.5c-1.3-0.4-2.5-1.1-2.4-2.8
	c1.5,0.7,2.7,1.7,4.1,1.9c4,0.5,8,0.8,12,1c3.2,0.2,5.8-1.3,7.1-4.1c1.9-3.9,4.9-6.5,8.1-9.1c1-0.8,2-1.6,2.7-2.6
	c0.6-0.7,1.2-1.7,1.2-2.6c0.1-3.6,0.1-7.2,0.1-11.1c-6.1-0.2-11.7-1-17.5,1.1c-5.1,1.9-10.5,2-15.9,1.4c5.5-1.6,11.6-0.4,17.4-3.4
	c-2.7-1.2-4.8-2.2-7-3.2C480.9,203,478.8,201.9,476.7,200.8z M586.4,436.8c63.7-62.4,67-170.8,3.2-235.5
	c-40.1,39.7-80.1,79.4-120.4,119.4C508.4,359.6,547.4,398.2,586.4,436.8z M347.5,436.6c38.9-38.6,77.9-77.2,116.9-115.9
	c-40.3-39.9-80.4-79.6-120.5-119.3C279.3,269.4,286.3,375.7,347.5,436.6z M588.8,439.5c9.6,9.6,19.1,19,28.5,28.3
	C706.7,380.5,696.2,243,622,169c-10,9.9-19.9,19.8-30,29.8c31.6,34.4,47.7,74.6,47,120.9C638.2,365.9,620.9,405.6,588.8,439.5z
	 M311.6,169.2c-81.1,84-76.2,221.2,5,297.9c9.3-9.4,18.6-18.8,28-28.3c-31.2-33.3-48.4-72.8-49.3-118.9
	c-0.9-46.4,14.9-86.5,46.3-120.8C331.6,189,321.6,179.1,311.6,169.2z M607.7,154.6c-27.7-24-59-40.5-94.6-48.2
	C470,97,427.8,100.5,386.8,117c-23.4,9.4-52.9,29.2-59.6,37.9C333,155.8,603.5,155.5,607.7,154.6z M319,469.6
	c80.2,79.6,213.3,82,296,0.3c-8.2-8.2-16.5-16.4-24.6-24.5c-2.5,2.2-4.6,4.1-6.7,6c1.6,3.9,3.1,7.4,4.5,10.9c1.4,3.6,2.8,7.2,4.3,11
	c-4.2,3.3-8.2,6.3-12.2,9.5c-1.5,1.2-2.7,1-4-0.2c-1.5-1.3-3.2-2.5-4.8-3.7c-4-3-8-6-12.2-9.1c-4.2,2.6-8.3,5-12.3,7.5
	c0.9,8,1.9,15.7,2.8,23.9c-4.5,1.9-8.7,3.8-13,5.6c-3.4,1.4-3.4,1.3-5.7-1.5c-3.6-4.5-7.3-9-10.9-13.6c-1.1-1.3-2.1-2-3.9-1.5
	c-3.7,1.1-7.5,2.2-11.4,3.3c-1.2,7.9-2.3,15.7-3.5,23.7c-4.6,0.6-8.8,1.3-13.1,1.8c-4.4,0.5-4.4,0.5-6.2-3.5
	c-2.6-5.9-5.2-11.7-7.7-17.5c-5,0-9.7,0-14.5,0c-2.8,6.4-5.5,12.6-8.1,18.9c-0.8,1.9-1.8,2.6-3.7,2.4c-4.1-0.5-8.2-1.1-12.4-1.5
	c-2.3-0.3-3.1-1.5-3.3-3.7c-0.6-5.9-1.6-11.7-2.3-17.6c-0.2-2.1-1.1-3.1-3.2-3.5c-2.7-0.6-5.4-1.4-8-2.3c-2.2-0.8-3.7-0.2-5.1,1.7
	c-3.4,4.6-7.1,9.1-10.7,13.7c-0.9,1.1-1.7,2.3-3.4,1.7c-5.1-1.9-10.1-3.8-14.8-6.6c0.8-8,1.7-15.7,2.5-23.6c-4.3-2.6-8.3-5-12.4-7.4
	c-6.5,4.9-12.7,9.6-19.1,14.5c-4.7-3.8-9.2-7.4-13.8-11.1c1.9-5.1,3.8-9.8,5.5-14.5c0.9-2.5,2.7-5.3,2.1-7.4
	c-0.6-2.3-3.5-4.1-5.4-6.1c-0.2-0.2-0.5-0.2-0.7-0.3c-0.2-0.2-0.4-0.4-0.6-0.6C335.2,452.7,327.2,461.1,319,469.6z M470,459.1
	c4.5-0.5,11.8-1.2,19-2.4c10.7-1.7,21.1-4.9,30.8-9.8c7-3.5,8.8-11.5,3.9-17.5c-8.9-10.8-17.9-21.5-26.8-32.2
	c-1.9-2.3-3.9-3-6.9-1.9c-14.9,5.2-29.9,5.2-44.8,0.2c-4.1-1.4-5.1-1-7.8,2.3c-8.5,10.3-17.1,20.5-25.6,30.8
	c-5.7,6.8-3.8,15.3,4.3,19C432.2,455.1,449.4,458.5,470,459.1z M455.4,157.5c-14.8-1.6-118.3-1.2-120.8-0.5c3,1.2,6.5,2.7,9.9,3.9
	c2.8,1,4.6,2.9,5.9,5.5c0.6,1.2,1.8,2.4,3,3.1c5.2,2.9,10.6,5,16.6,6.1c9,1.7,17.5,5,24.5,11.1c2,1.7,4.1,2.7,6.7,3.1
	c5.4,0.9,10.6,2.2,15.3,5.1c2.5,1.5,4.9,2.1,7.8,1.8c3.9-0.4,7.8-0.3,11.5,1.4c3.3,1.6,6.7,3.1,10.1,4.6c-0.3-1.7-1.3-2.7-2-3.9
	c-1.5-2.6-4.4-4.6-3.5-7.5c-1.2-2.1-2.8-3.8-2.9-5.5c-0.1-1.7,1.4-3.5,2.4-5.5c-2.1-4.2-2-4.6,2.2-8.1c-0.1-4.4,0-4.5,3.9-5.6
	c1.7-2.2,2.8-4.1,4.4-5.6C451.8,159.6,453.7,158.6,455.4,157.5z M438.8,291.1c0.8-3.6,2.1-6.5,1.9-9.4c-0.2-3,0-5.7,0.8-8.5
	c1.1-4.2,1.7-8.3-0.6-12.5c-0.9-1.6-1.1-3.6-1.7-5.4c-2.4-7.4-2.5-15.4-6.5-22.4c-2.3-4-4.7-5.6-9.3-4.8c-4.5,0.8-8.9,1-13.5,0.2
	c-5.3-0.9-10.7-1-16.1-1.4c-0.7-0.1-1.5,0.1-2.2,0.3c-4.2,1.1-8.4,1.4-12.7,1.1c-0.8,0-1.6,0.1-2.9,0.2
	C396.9,249.6,417.6,270,438.8,291.1z M557.1,229.2c-0.1-0.3-0.2-0.6-0.3-0.8c-7.3,1.5-14.2-2.4-21.6-0.8c-2.7,0.6-5.6-0.3-8.3,0.3
	c-5.2,1.3-10.2,1-15.3,0c-3.7-0.7-6.2-0.1-9,4.5c-2.6,4.2-4,8.9-5,13.8c-1.2,6.3-2.1,12.7-4.7,18.6c-0.3,0.7-0.3,1.7-0.1,2.5
	c0.4,2.2,1,4.4,1.3,6.7c0.3,2.2,0.9,4.6,0.5,6.7c-0.5,3,0.5,5.6,1.4,9.1C516.7,269.3,536.9,249.2,557.1,229.2z M494.3,350
	c-7.1,9.6-16.1,14.3-27.5,14.2c-11.3-0.2-20.2-5.2-26.9-14.3c-5.3,5.4-10.2,10.5-15.2,15.6c22,28.5,64.8,27,84.7,0.3
	C504.4,360.6,499.5,355.4,494.3,350z M327.1,169.4c1.6,2.5,3.6,3.4,5.6,3.8c3.2,0.6,4.9,3.4,7.7,4.5c2.9,1.1,6.2,1.5,8.8,3
	c5.5,3.1,10.8,6.5,16,10c7.5,5,15.8,8.2,24.4,10.5c3.1,0.8,6.2,2.2,9.1,3.5c3.5,1.7,6.9,3.7,10.3,5.5c2.7,1.4,3.1,1.3,5.9-0.8
	c-2.7-1.4-5.4-2.7-8-4.2c-2.5-1.5-5-3.1-7.4-4.7c0.1-0.2,0.3-0.4,0.4-0.6c0.5,0.3,1,0.5,1.5,0.8c3.9,2.2,7.9,4.4,11.8,6.8
	c2.4,1.5,4.7,1.8,7.5,1c6.4-2,13.1-2.3,19.8-1.7c2.2,0.2,3.8-0.2,5.5-2.2c-1.8-0.9-3.3-1.7-4.9-2.4c-1.7-0.8-3.5-1.3-5.1-2.2
	c-4.2-2.1-8.6-1.9-13.4-1.6c1.7,2.9,5.2,4,5.4,7.7c-1.6-1.8-2.9-3.6-4.5-4.9c-5.1-4-10.7-7.3-17-8.7c-6.2-1.3-11.8-3.2-16.9-7.4
	c-5.5-4.5-12.4-6.7-19.4-8c-6.7-1.2-12.9-3.4-18.7-6.9c-0.7-0.4-1.5-1.1-1.8-1.8c-1.8-5.2-6.7-6.5-11-8.4c-0.5-0.2-1.3,0-1.9,0
	c-0.1,0.2-0.2,0.4-0.2,0.6c2.2,1.6,4.3,3.2,6.5,4.8c-0.1,0.2-0.3,0.5-0.4,0.7c-1.5-0.7-2.9-1.5-4.6-2.3c-0.5,0.9-1,1.7-1.6,2.7
	c2.8,0.5,4.2,1.9,4.6,4.5c0.3,1.8,1.8,2.7,3.5,3c0.8,0.2,1.6,0.2,3.1,0.3c-0.9,0.8-1.3,1.5-1.7,1.5c-4.2,0-6-3.4-8.1-7.3
	c-0.8,2.2-1.3,3.5-1.9,5C333.8,170.3,331,169.4,327.1,169.4z M326.7,157.6c0-0.2-0.1-0.4-0.1-0.6c-0.8-0.1-1.8-0.5-2.3-0.1
	c-1.7,1.1-3.3,2.2-3.2,4.7c0.2,2.8,0.2,5.6,0,8.3c-0.3,3.3,0.9,5.6,3.3,7.9c10.4,10.1,20.7,20.2,30.8,30.6c2.3,2.4,4.7,2.7,7.7,2.6
	c6.8-0.3,13.6-0.3,20.3-0.1c2.4,0.1,4.8,1.3,7.2,2c0.9,0.3,2,0.7,2.8,0.5c4.6-1.3,9.2-2.3,14.1-2.3c-5-2.9-10.1-5.6-15.3-7.8
	c-2.2-1-5-0.8-7.3-1.7c-7.4-3.1-15.2-5.4-21.6-10.5c-1.6-1.2-3.2-2.4-4.9-3.5c-4.6-3.1-9-6.4-14.8-7.1c-1.7-0.2-3.3-1.3-4.8-2.1
	c-2.5-1.3-5-2.7-7.6-4.1c-0.8-0.4-1.6-0.7-2.3-1.3c-0.9-0.7-2.1-1.3-2.4-2.3c-0.3-0.9,0.3-2.2,0.6-3.3c-0.8-0.6-1.8-1-2.4-1.8
	c-0.5-0.6-0.9-2.1-0.7-2.2c2.1-1.2,0-2.7,0.3-4.1C325,158.6,325.9,158.1,326.7,157.6z M491.3,348.7c-8.4-8.7-16.4-17.1-24.7-25.7
	c-8.3,8.2-16.4,16.3-24.4,24.3C453.2,365.8,481.7,365.2,491.3,348.7z M527.8,210.8c3.7,0.4,6.6,0.3,9.2,1.2
	c3.9,1.2,7.4,0.9,11.3-0.1c7.5-2,15.2-2.1,22.9-1c2.7,0.4,4.9,0.1,6.7-2.3c0.9-1.2,2.1-2.2,3.2-3.2c9.8-9.8,19.7-19.5,29.5-29.3
	c0.9-0.9,2-2.2,2-3.3c0.2-4,0.2-8.1,0-12.1c-0.1-2.3-1.8-3.8-4.2-3.8c-0.2,0-0.5,0.4-0.8,0.8c1,0.5,1.8,0.9,2.8,1.3
	c-0.4,1-0.7,1.8-1,2.6c3.1,2.8,2.5,2.8-1.4,6c0.4,3.6-0.1,4.5-3.4,6.2c-3,1.6-5.9,3.3-8.9,4.8c-2.1,1-4.5,1.6-6.7,2.4
	c-1.2,0.4-2.5,0.6-3.5,1.2c-4.2,2.6-8.3,5.2-12.4,8c-8.4,5.9-17.4,10.6-27.6,12.4c-1.1,0.2-2.2,0.5-3.2,1
	C537.7,205.6,533.1,208,527.8,210.8z M360.7,212.3c-0.1,0.3-0.2,0.5-0.3,0.8c2.3,2.3,4.6,4.6,6.8,6.9c7,7.2,7.1,7.2,17.1,6.9
	c1.7-0.1,3.5-0.4,5.2-0.7c2-0.3,4-0.7,6-0.7c3.3,0,6.5,0.3,9.8,0.6c1.2,0.1,2.6,0.1,3.7,0.5c6.1,2,12.1,0.6,18.1-0.7
	c0.5-6.2-0.2-7.4-6-9.5c-1.9-0.7-3.8-1.2-5.7-1.9c-6.9-2.5-13.8-2.6-20.7-0.1c-1.9,0.7-3.4,0.5-5-0.4c-3.1-1.6-6.4-2.2-9.8-2.2
	c-3.9,0-7.8-0.1-11.7-0.1C365.6,211.8,363.2,212.1,360.7,212.3z M506.9,226c3.7,0.5,7.2,1.1,10.7,1.5c1.5,0.2,3.1,0.5,4.5,0
	c4.7-1.6,9.4-1.2,14.2-1.3c2.9-0.1,5.7-0.1,8.6,0.1c3.8,0.2,7.5,0.5,11.2,0.7c2.3,0.2,4.1-0.7,5.7-2.4c3.2-3.3,6.6-6.6,9.8-9.9
	c0.6-0.6,1-1.3,1.8-2.3c-7.3-0.9-14-1-20.8-0.2c-2.8,0.4-5.5,1.6-8.3,2.2c-1.1,0.2-2.5,0.2-3.6-0.2c-10.3-3.6-19.8-0.9-29.2,3.4
	C508,219.2,506,221.8,506.9,226z M438.9,391.9c-9.2-4.5-16.8-10.5-23.5-18.5c-0.9,0.9-1.7,1.7-2.6,2.6c6.8,8.1,14.4,14.2,23.3,18.7
	C437,393.7,437.7,393,438.9,391.9z M407.2,429.1c-7.5-6.1-14.6-12-21.8-18c-0.5,0.7-1.1,1.6-1.7,2.6c6.7,7.1,14.1,13,22.2,18.1
	c0.5-0.8,0.8-1.4,1-1.9C407.1,429.5,407.2,429.2,407.2,429.1z M498.6,394.7c8.7-4.8,16.2-10.5,22.5-18.2c-1-0.8-1.8-1.5-2.7-2.2
	c-6.3,7.5-13.8,13.1-22.6,17.8C496.8,393.1,497.5,393.8,498.6,394.7z M546.3,407.3c-7.4,6.1-14.6,12.1-22.1,18.4
	c0.6,0.7,1.3,1.5,2,2.3c8.3-5.6,15.7-11.2,21.9-18.4C547.2,408.6,546.7,407.8,546.3,407.3z M549,411c-7.3,6.1-14.5,12-21.8,18.1
	c0.5,0.8,1.1,1.7,1.6,2.7c8.1-5.4,15.6-11.3,22-18.5C550,412.3,549.4,411.6,549,411z M386.6,409.5c4.5,5.7,16.2,15.2,21.9,17.9
	c0.6-0.7,1.2-1.4,1.7-1.9c-7.4-6.1-14.6-12.1-21.9-18.2C387.8,407.8,387.2,408.6,386.6,409.5z M391,477.3c-1,2-0.7,3.3,1.2,4.2
	c6.4,2.9,12.8,5.8,19.4,8.8c0.9-1.1,1.5-2,2.2-2.8C406.1,484,398.7,480.7,391,477.3z M543.4,477.5c-7.5,3.3-15,6.6-22.5,9.9
	c0.8,2.1,2,2.7,3.9,1.9c5.6-2.5,11.3-4.9,16.9-7.5C544.2,480.7,544.1,480.5,543.4,477.5z M501.8,493c-8.2,1.1-16.2,2.3-24.2,3.4
	c0.1,2.4,1.2,3.1,3.2,2.9c6.3-0.9,12.6-1.8,18.9-2.6C501.7,496.3,502,494.9,501.8,493z M457.3,496.4c-8.2-1.2-16.2-2.3-24.2-3.4
	c-0.4,2,0,3.1,1.9,3.5c6.9,1.4,13.8,2.6,21,2.7C456.4,498.3,456.8,497.4,457.3,496.4z M507.7,217.8c4.8-1.9,9.5-3.8,14.6-5.9
	c-5-1.7-9.5-3.6-14.6-3.8C507.7,211.6,507.7,214.8,507.7,217.8z M389.7,485.6c6.5,2.8,12.8,5.6,19.2,8.3c0.8-1.2,1.3-2,1.9-2.9
	c-6.9-3-13.5-6-20.3-9C390.3,483.1,390.1,484,389.7,485.6z M544.4,482c-7.1,3.1-13.9,6.1-21.4,9.4c1.1,1.2,1.9,1.9,2.5,2.6
	c6.9-3,13.1-5.8,19.1-8.4C544.6,484.2,544.5,483.3,544.4,482z M501.1,497.7c-7.3,1-14.4,1.9-21.6,2.9c0.9,3.1,0.9,3.2,3.3,2.9
	c5.3-0.7,10.7-1.5,16-2.2C500.9,501.1,501.5,499.9,501.1,497.7z M433.7,497.7c0.4,3.2,0.4,3.4,2.4,3.7c5.2,0.8,10.4,1.5,15.6,2.3
	c2.2,0.3,3.3-0.5,3.5-3C448,499.7,440.9,498.7,433.7,497.7z M427.2,208.9c-3.7-0.2-9.9,1.4-13.4,3.6c2.5,0.8,4.7,1.5,6.9,2.3
	c2.1,0.8,4.2,1.9,6.5,2.9C427.2,214.6,427.2,211.7,427.2,208.9z M389.9,486.9c-0.8,2-0.8,3.3,1.1,4.1c4.9,2.1,9.8,4.3,14.9,6.6
	c0.8-1.1,1.4-1.9,2.1-2.9C401.8,492,396,489.5,389.9,486.9z M453.3,504.9c-6.5-0.9-12.6-1.7-18.8-2.6c0,3.1,0,3.3,2,3.6
	c4.6,0.7,9.2,1.2,13.7,1.9C452.5,508.2,453.2,507.1,453.3,504.9z M500.4,502.4c-6.5,0.9-12.8,1.7-19.3,2.6c0.5,1.1,0.9,2.1,1.4,3.3
	c5.3-0.7,10.3-1.5,15.4-2.1C500,505.8,500.7,504.7,500.4,502.4z M574.8,477.8c3.7-3,7.2-5.8,10.5-8.6c2-1.7,2-1.8,0.1-4.5
	c-4.4,3.6-8.7,7.1-13.3,10.8C573,476.3,573.8,476.9,574.8,477.8z M389.5,491.6c-0.9,3.1-0.9,3.2,1.3,4.2c4,1.8,8,3.5,12.1,5.4
	c0.8-0.9,1.4-1.8,2.3-2.8C399.8,496,394.7,493.8,389.5,491.6z M483.2,509.2c0.1,2.1,0.7,3.3,3,3c4.3-0.6,8.7-1.1,13.3-1.7
	c0.2-1.3,0.3-2.3,0.5-3.7C494.1,507.7,488.7,508.4,483.2,509.2z M372.1,417.6c3.2,0.3,5.6-1.1,7.5-3.8c2.3-3.2,4.5-6.3,6.7-9.5
	c0.3-0.5,0.5-1.1,0.7-1.7c-0.2-0.1-0.3-0.2-0.5-0.3C381.8,407.4,377,412.5,372.1,417.6z M451.5,509.2c-5.5-0.8-10.9-1.5-16.7-2.3
	c0.2,1.4,0.4,2.4,0.6,3.6c4.5,0.6,8.7,1.1,12.9,1.6C450.2,512.4,451.4,511.8,451.5,509.2z M587.5,468.9c-4,3.3-7.7,6.4-11.6,9.6
	c1.1,0.8,1.9,1.4,2.8,2c3.5-2.7,6.8-5.4,10.2-8C588.4,471.2,588,470.2,587.5,468.9z M387.9,499.6c4.3,1.8,8.2,3.4,12.2,5
	c0.5-0.4,0.9-0.7,1.2-1.1c0.3-0.4,0.5-0.8,0.9-1.5c-4.5-2-8.8-3.8-13.3-5.8C388.6,497.3,388.3,498.2,387.9,499.6z M347.2,469
	c-0.5,1.5-0.9,2.5-1.3,3.5c3.5,2.7,6.8,5.3,10.2,8c1-0.8,1.7-1.4,2.6-2.1C355,475.3,351.3,472.3,347.2,469z M534.6,504.7
	c4-1.7,7.9-3.4,12-5.1c-0.3-1.3-0.5-2.3-0.8-3.5c-4.5,2-8.7,3.9-13.2,6C533.3,503.1,533.9,503.8,534.6,504.7z M613.9,160.9
	c-0.3,4.1-0.3,7.6-0.1,11.8c2.4-2.4,4.2-4.3,5.9-6C617.9,164.8,616.2,163.1,613.9,160.9z M498.9,511.7c-4.8,0.7-9.3,1.3-13.9,1.9
	c0.2,2.3,1.3,3,3.1,2.7c3-0.4,6-0.9,8.9-1.3C498.8,514.8,499.3,513.8,498.9,511.7z M449.7,513.5c-4.7-0.7-9.2-1.3-13.8-1.9
	c-0.6,2.1-0.2,3.2,1.8,3.4c3,0.4,5.9,0.8,8.9,1.2C448.5,516.5,449.5,515.8,449.7,513.5z M562.3,417.4c-4.8-4.7-9.2-9-13.7-13.3
	c-0.2,0.2-0.4,0.4-0.6,0.5c2.5,3.4,5,6.8,7.6,10.2C557.2,416.6,559.1,417.8,562.3,417.4z M314,167.2c1.7,1.7,3.5,3.4,5.7,5.6
	c0-4.2,0-7.7,0-11.1C317.9,163.4,316.2,165.1,314,167.2z M428.8,222.4c-0.6,3.9-0.5,3.8,2.4,5.8c1,0.7,1.7,2,2.4,3.2
	c0.6,1,1,2.1,1.8,3.6C437,228.3,431.5,226.2,428.8,222.4z M599.1,169.6c4.3-1.4,7.9-2.9,11.4-5.8c-3.4-0.9-5.4,0.9-7.5,2
	C601.6,166.5,599.6,166.8,599.1,169.6z M335.1,169.4c-0.7-2.6-2.8-3.2-4.4-4.1c-1.7-0.9-3.4-2.3-6.5-1.4
	C327.9,166.3,331,168.4,335.1,169.4z M325.9,159.8c2.6,3,7.3,5.4,10.3,5.2C332.9,162.2,329.8,160.3,325.9,159.8z M336.5,162.8
	c-2.6-4.6-5-6-8.9-5.2C330.9,159.5,333.7,161.2,336.5,162.8z M609.1,159.8c-4.2,0.6-8.9,3.3-10,6.2
	C602.7,163.9,606.1,162.8,609.1,159.8z M439.9,188.1c0.3-4.8,1.6-6.2,5.5-6.3c0.2,0,0.6,0.2,0.7,0.1c0.3-0.4,0.5-0.9,1.1-1.9
	c-2.6,0.7-4.8,0.7-6.4,1.7C438.3,183.6,438.4,184.8,439.9,188.1z M448.7,171.8c1.9-0.3,3.1-0.5,5-0.8
	C451.5,169.6,450.2,169.2,448.7,171.8z M441.7,194c0.5,0.2,0.6,0.3,0.7,0.3c0.1,0,0.3-0.1,0.3-0.1c0.1-1,0.2-1.9,0.4-2.9
	c-0.3,0-0.6-0.1-0.8-0.1C442,192.2,441.8,193.2,441.7,194z M488.4,186.3c-0.1-1,0.4-2.3-1.8-2.4
	C487.4,184.9,487.9,185.6,488.4,186.3z M454.9,191.4c0.1-0.1,0.2-0.1,0.3-0.2c-0.2-0.5-0.4-0.9-0.6-1.4c-0.1,0.1-0.2,0.1-0.3,0.2
	C454.4,190.5,454.7,190.9,454.9,191.4z"/>
<path fill="#FFFFFF" d="M481.6,297.8c1.5-3.6,3.1-7.3,4.6-10.9c-0.2,3.7-1.3,7.2-3.4,10.4C482.5,297.6,481.9,297.6,481.6,297.8
	C481.5,297.7,481.6,297.8,481.6,297.8z"/>
<path fill="#FFFFFF" d="M471.3,203.8c-0.1,3-0.9,5.7-2.4,8.1c-0.3-0.1-0.5-0.2-0.8-0.3C469.2,209,470.3,206.4,471.3,203.8z"/>
<path fill="#FFFFFF" d="M482.8,265.8c1.4,2.8,1.2,3.5-1.3,4.9C482,269.1,482.4,267.4,482.8,265.8z"/>
<path fill="#FFFFFF" d="M476.7,200.8c0.7,1.8,1.5,3.6,2.4,6c-2.7-2.1-2.7-2.1-2.3-5.9C476.8,200.9,476.7,200.8,476.7,200.8z"/>
<path fill="#FFFFFF" d="M501.6,220.8c-1,1.3-2.1,2.6-3.1,3.9c-0.2-0.1-0.4-0.3-0.5-0.4c1-1.3,1.9-2.6,2.9-3.9
	C501,220.4,501.3,220.6,501.6,220.8z"/>
<path fill="#FFFFFF" d="M469.7,283.3c-0.7,0.6-1.2,1.2-1.8,1.4c-0.3,0.1-1.2-0.9-1.1-1c0.3-0.6,0.7-1.2,1.3-1.5
	C468.4,282.1,469,282.8,469.7,283.3z"/>
<path fill="#FFFFFF" d="M468.8,266.1c-0.4,1.8-0.6,2.8-0.9,3.9C466.3,268.5,467.4,267.6,468.8,266.1z"/>
<path fill="#FFFFFF" d="M453.9,297.5c-0.6-1-1.1-2-1.7-3c0.2-0.1,0.4-0.2,0.6-0.3c0.5,1,1.1,2,1.6,3.1
	C454.2,297.3,454.1,297.4,453.9,297.5z"/>
<path fill="#FFFFFF" d="M453.1,271.2c-0.3-1.4-0.6-2.8-0.9-4.2c0.2,0,0.4-0.1,0.6-0.1c0.3,1.4,0.7,2.8,1,4.2
	C453.6,271.1,453.3,271.2,453.1,271.2z"/>
<path fill="#FFFFFF" d="M446.7,213.1c-0.6-0.6-1.3-1.2-2-1.8c0.4-0.3,0.6-0.5,0.7-0.5c0.6,0.6,1.3,1.1,1.9,1.7
	C447.1,212.7,446.9,212.9,446.7,213.1z"/>
<path fill="#FFFFFF" d="M489.8,211.5c-0.5,0.6-1,1.1-1.5,1.7c-0.3-0.3-0.6-0.6-0.9-0.8c0.5-0.6,1-1.2,1.5-1.7
	C489.2,210.9,489.5,211.2,489.8,211.5z"/>
<path fill="#FFFFFF" d="M481.5,297.7c-0.2,0.8-0.4,1.6-0.7,2.5c-0.2-0.1-0.5-0.2-0.7-0.3c0.5-0.7,1-1.3,1.5-2
	C481.6,297.8,481.5,297.7,481.5,297.7z"/>
<path fill="#FFFFFF" d="M455.9,175.9c3.2-2.6,6.4-1.8,9.7-0.4c-0.3,1.2-0.6,2.1-0.8,3.1c-0.2-0.4-0.4-0.8-0.6-1.2
	c-2.9,3.2-2.9,3.2-8.1,0.7c1.2-0.6,2.2-1.2,3.9-2.1C458.2,175.9,457,175.9,455.9,175.9z"/>
<path fill="#FFFFFF" d="M478.5,176.2c-1.8-0.1-2.8-0.2-3.9-0.3c-0.1,0.2-0.1,0.4-0.2,0.6c0.9,0.4,1.8,0.8,3,1.4
	c-1.8,0.9-3.2,1.6-4.7,2.4c-1.2-1-2.4-2-3.7-3.1c0,1.2,0,2.3,0,3.4c0,0.9,0.1,1.8-0.1,2.7c-1.4-2.3-0.6-4.8-0.7-7.2
	c0-0.3,0.4-0.6,0.6-0.9C470.5,174,476,174.3,478.5,176.2z"/>
<path fill="#FFFFFF" d="M491.8,181.7c0-1-0.1-2.1,1.5-1.7c1.6,0.4,2.7,1.3,2.9,3c0.2,1.8,0.2,3.7-2,4.7c0.2-1.9,0.6-3.5,0.3-5
	c-0.1-0.5-1.8-0.7-2.8-1.1C491.7,181.6,491.8,181.7,491.8,181.7z"/>
<path fill="#FFFFFF" d="M484.9,173.9c2.2,0.8,4.2,1.6,6.1,2.3c-0.1,0.1-0.1,0.3-0.2,0.4c-1.6-0.3-3.2-0.6-5-1
	c-0.4,2.2,1.8,1.8,2.9,2.7C484.8,178.2,484.7,178.1,484.9,173.9z"/>
<path fill="#FFFFFF" d="M460.1,190.9c3.9-1.3,7.8-1.9,11.8-0.1c-0.6,0.1-1.3,0.2-1.9,0.3c-2.6,0.1-5.2,0.3-7.8,0.3
	C461.5,191.3,460.8,191,460.1,190.9C460.1,190.8,460.1,190.9,460.1,190.9z"/>
<path fill="#FFFFFF" d="M464.4,186.3c2.3,1.2,4.1-2.6,6.7-0.5C468.7,187.1,466.7,188.5,464.4,186.3z"/>
<path fill="#FFFFFF" d="M477.5,160.6c0.7,1,1.3,2,2.1,3.1c1,0.1,2.1,0.3,3.1,0.4c0,0.2,0,0.4,0,0.5c-1.3,0.1-2.6,0.2-3.9,0.4
	c-0.6-1.5-1.1-2.8-1.6-4.2C477.3,160.7,477.4,160.7,477.5,160.6z"/>
<path fill="#FFFFFF" d="M464.6,192.7c1.7,0,3.4,0,5.1,0c0,0.2,0,0.4,0,0.6c-1.7,0-3.4,0-5.1,0C464.6,193.1,464.6,192.9,464.6,192.7z
	"/>
<path fill="#FFFFFF" d="M489.1,181c0.9,0.2,1.8,0.4,2.7,0.7c0,0-0.1-0.1-0.1-0.1c0.3,1.4,0.7,2.7,1,4.1c-0.1,0-0.3,0.1-0.4,0.1
	C491.3,184.2,490.2,182.6,489.1,181C489.2,181,489.1,181,489.1,181z"/>
<path fill="#FFFFFF" d="M481.9,167.8c-0.8,0.2-1.7,0.4-2.5,0.6c0-0.2-0.1-0.4-0.1-0.6c0.8-0.2,1.7-0.4,2.5-0.6
	C481.8,167.4,481.9,167.6,481.9,167.8z"/>
<path fill="#FFFFFF" d="M519.1,208.2c4.5-2.3,9.1-4.6,13.6-6.9c0.7-0.3,1.3-0.7,2-1c0,0,0.2,0.2,0.2,0.2c-1.9,1.4-3.6,3-5.6,4.2
	c-2.2,1.3-4.6,2.4-7,3.4C521.3,208.5,520.1,208.2,519.1,208.2C519.1,208.2,519.1,208.2,519.1,208.2z"/>
<path fill="#FFFFFF" d="M563.5,182.4c1.3-0.8,2.6-1.6,3.9-2.4c0.1,0.2,0.2,0.4,0.4,0.6c-1.3,0.8-2.5,1.7-3.8,2.5
	C563.9,182.8,563.7,182.6,563.5,182.4z"/>
<path fill="#FFFFFF" d="M509.5,202.3c-0.7,1-1.4,2-2.1,3c-0.2-0.1-0.4-0.2-0.5-0.4c0.7-1,1.4-2.1,2.1-3.1
	C509.1,202,509.3,202.2,509.5,202.3z"/>
<path fill="#FFFFFF" d="M534.7,200.4c0.8-0.9,1.7-1.9,2.5-2.8c0.2,0.2,0.4,0.5,0.6,0.7c-1,0.8-2,1.5-3,2.3
	C534.8,200.5,534.7,200.4,534.7,200.4z"/>
<path fill="#FFFFFF" d="M354.5,179.5c-2.9-0.4-2.9-0.4-3.6-3.1c0.8,0.7,1.4,1.2,1.9,1.7C353.4,178.6,353.9,179,354.5,179.5z"/>
<path fill="#FFFFFF" d="M372.2,183.2c0.6,0.5,1.2,1.1,1.9,1.6c-0.1,0.1-0.2,0.3-0.3,0.4c-0.7-0.5-1.4-1-2.1-1.5
	C371.8,183.5,372,183.4,372.2,183.2z"/>
<path fill="#FFFFFF" d="M393.2,467.4c2.3,1,4.6,1.9,6.8,3c15,7.5,30.8,12.3,47.3,14.6c23.9,3.4,47.2,0.7,69.9-7.2
	c16.1-5.7,30.9-13.9,44.4-24.5c1.5-1.2,3.3-2.2,4.9-3.3c-0.7,0.8-1.3,1.7-2.2,2.4c-20.4,16.5-43.5,27.5-69.3,32.4
	c-20.1,3.9-40.2,3.4-60.3-0.9c-13.7-3-26.7-8-39.1-14.5C394.8,468.9,394.1,468.1,393.2,467.4z"/>
<path fill="#FFFFFF" d="M566.4,450.1c2.1-1.8,4.1-3.6,6.2-5.4C571.1,447.2,569.1,449,566.4,450.1z"/>
<path fill="#FFFFFF" d="M365.3,441.7c2.4,1.8,4.8,3.5,7.1,5.4c17,14,36.1,24.2,57.4,29.9c16.6,4.4,33.4,5.8,50.5,4.3
	c24.2-2.1,46.3-10.2,66.7-23.1c0.9-0.6,2-0.9,3-1.4c-2.2,1.6-4.2,3.5-6.5,4.8c-17.5,10.4-36.3,17.2-56.5,20.1
	c-17.4,2.4-34.6,1.6-51.7-2.3c-22.3-5.1-42.4-14.9-60.3-29c-3-2.3-5.8-4.8-8.7-7.3C365.8,442.8,365.6,442.2,365.3,441.7z"/>
<path fill="#FFFFFF" d="M549.8,456.9c1.3-1.1,2.5-2.3,3.9-3.3c2.5-1.8,5.1-3.4,7.6-5.2C558,452.1,554.3,455,549.8,456.9z"/>
<path fill="#FFFFFF" d="M541.5,456.9c0.4-0.4,0.7-1,1.2-1.3c9.4-5.9,18.1-12.8,26.1-20.5c0.8-0.7,1.8-1.2,2.7-1.7
	c-3.8,3.7-7.4,7.6-11.5,10.9c-5,4.1-10.3,7.7-15.5,11.4C543.6,456.3,542.5,456.5,541.5,456.9z"/>
<path fill="#FFFFFF" d="M381.1,443.2c1.2,0.7,2.4,1.2,3.5,2c16.6,12.1,34.7,20.7,54.9,24.9c24,5,47.8,3.7,71-4.2
	c7-2.4,13.6-5.8,20.4-8.7c1-0.4,2.1-0.7,3.1-1.1c-0.7,0.6-1.4,1.4-2.2,1.8c-17,8.9-35.1,14.2-54.3,15.8c-19.4,1.6-38.2-1.3-56.4-7.7
	c-13.7-4.8-26.4-11.9-38-20.6C382.3,444.7,381.8,443.9,381.1,443.2z"/>
<path fill="#FFFFFF" d="M367.2,431.1c0.7,0.4,1.6,0.6,2.2,1.1c3.9,3.3,7.7,6.7,11.5,10.1c0.2,0.2,0.3,0.6,0.4,0.9
	c-2-1.4-4.1-2.7-6-4.3C372.5,436.5,369.9,433.7,367.2,431.1z"/>
<path fill="#FFFFFF" d="M419.9,225.8c-5.8,0.5-22.6-3.6-24.9-5.7C402.9,222,411.1,223.8,419.9,225.8z"/>
<path fill="#FFFFFF" d="M390.8,219.3c-0.1,0.9-0.3,1.8-0.4,2.7c-0.2,0-0.4-0.1-0.7-0.1c0.2-0.9,0.4-1.8,0.5-2.6
	C390.4,219.2,390.6,219.2,390.8,219.3z"/>
<path fill="#FFFFFF" d="M516.8,225.9c7.5-3.5,15.5-2.9,23.2-4.4c-1.4,0.4-2.7,1.1-4.1,1.3c-5.9,1.1-11.8,2.1-17.7,3.1
	C517.8,226,517.5,225.9,516.8,225.9z"/>
<path fill="#FFFFFF" d="M516.7,454.5c-1.5,0.8-2.9,1.8-4.5,2.3c-16.2,6-33,9-50.3,8.1c-22.2-1.2-43-7.4-62-19.2
	c-1.2-0.7-2.2-1.7-3.3-2.5c1,0.4,2.1,0.7,3,1.2c14.5,9,30.1,15,47,17.8c22.5,3.7,44.4,1.5,65.7-6.5
	C513.8,455.2,515.2,454.9,516.7,454.5z"/>
<path fill="#FFFFFF" d="M546.9,436.4c-0.3,0.5-0.6,1.1-1,1.4c-8.6,6.8-17.9,12.3-27.9,16.6c-0.4,0.2-1,0.1-1.5,0.2
	c0.8-0.5,1.5-1.2,2.4-1.6c9.2-4.2,17.8-9.3,25.7-15.5C545.3,437,546.2,436.7,546.9,436.4z"/>
<path fill="#FFFFFF" d="M380.4,423.9c7.2,6.2,14.5,12.1,22.5,17.2c0.2,0.1,0.2,0.4,0.3,0.6c-1-0.4-2.2-0.6-3-1.3
	c-6.2-4.8-12.4-9.6-18.6-14.5C381,425.5,380.8,424.6,380.4,423.9z"/>
<path fill="#FFFFFF" d="M395.3,441.7c-0.9-0.3-2-0.4-2.7-1c-3.9-3-7.7-6.1-11.5-9.2c-0.3-0.3-0.5-0.8-0.7-1.3c0.4,0.2,1,0.2,1.3,0.5
	C386.2,434.5,390.7,438.1,395.3,441.7z"/>
<path fill="#FFFFFF" d="M427.3,378.1c1.6,0,2.6,0.9,3.2,2.4C428.8,380.5,427.9,379.5,427.3,378.1z"/>
<path fill="#FFFFFF" d="M540.7,429.7c1.6-1.3,3.1-2.6,4.7-3.9C544.5,427.8,542.8,429,540.7,429.7z"/>
<path fill="#FFFFFF" d="M537.1,394.8c-2.1,3.5-4.7,6.5-8.5,8.4C531.4,400.4,534.3,397.6,537.1,394.8z"/>
<path fill="#FFFFFF" d="M521.1,420.6c1.6-1,3.1-2.1,4.7-3.1C524.7,419.2,523.2,420.4,521.1,420.6z"/>
<path fill="#FFFFFF" d="M578.7,463.6c-2,2.8-4.6,4.8-7.7,6.2C573.5,467.7,576.1,465.7,578.7,463.6z"/>
<path fill="#FFFFFF" d="M571.1,469.7c-1.1,0.8-2.1,1.6-3.2,2.4C569,471.2,570.1,470.4,571.1,469.7z"/>
<path fill="#FFFFFF" d="M448.7,167.6c1.2-0.2,2.4-0.4,3.6-0.5c0,0.2,0,0.4,0.1,0.5C451.1,167.6,449.9,167.6,448.7,167.6
	C448.7,167.6,448.7,167.6,448.7,167.6z"/>
</svg>
